<?xml version="1.0" encoding="UTF-8"?>
<svg xmlns="http://www.w3.org/2000/svg" width="900" height="300" viewBox="0 0 900 300" role="img" aria-labelledby="title desc">
  <title id="title">Hermes commit activity from 2026-05-20 to 2026-07-03</title>
  <desc id="desc">A 45-day commit activity chart generated from this repository's Git history. Total commits: 414. Dates are shown as ISO calendar dates.</desc>
  <style>
    text { fill: #64748b; font: 12px ui-monospace, SFMono-Regular, Menlo, Consolas, monospace; }
    .title { fill: #334155; font: 600 16px ui-sans-serif, system-ui, -apple-system, BlinkMacSystemFont, "Segoe UI", sans-serif; }
    .subtitle { fill: #64748b; font: 12px ui-sans-serif, system-ui, -apple-system, BlinkMacSystemFont, "Segoe UI", sans-serif; }
    .grid { stroke: #e2e8f0; stroke-width: 1; }
    .axis { stroke: #cbd5e1; stroke-width: 1.25; }
    .area { fill: #22c55e; opacity: 0.13; }
    .line { fill: none; stroke: #16a34a; stroke-width: 3; stroke-linecap: round; stroke-linejoin: round; }
    circle { fill: #0f766e; stroke: #ffffff; stroke-width: 2; }
  </style>
  <rect width="100%" height="100%" fill="#ffffff" />
  <text x="450" y="24" text-anchor="middle" class="title">Hermes GitHub Commit Activity</text>
  <text x="450" y="42" text-anchor="middle" class="subtitle">2026-05-20 to 2026-07-03 | 414 commits from repository history</text>
  <g>
      <line x1="56" x2="868" y1="232.00" y2="232.00" class="grid" />
      <text x="46" y="236.00" text-anchor="end">0</text>
      <line x1="56" x2="868" y1="143.00" y2="143.00" class="grid" />
      <text x="46" y="147.00" text-anchor="end">25</text>
      <line x1="56" x2="868" y1="54.00" y2="54.00" class="grid" />
      <text x="46" y="58.00" text-anchor="end">50</text>
      <line x1="56" x2="56" y1="54" y2="232" class="axis" />
      <line x1="56" x2="868" y1="232" y2="232" class="axis" />
      <path d="M 56.00 61.12 L 74.45 75.36 L 92.91 146.56 L 111.36 164.36 L 129.82 118.08 L 148.27 232.00 L 166.73 221.32 L 185.18 189.28 L 203.64 214.20 L 222.09 232.00 L 240.55 232.00 L 259.00 232.00 L 277.45 232.00 L 295.91 228.44 L 314.36 203.52 L 332.82 232.00 L 351.27 199.96 L 369.73 199.96 L 388.18 232.00 L 406.64 232.00 L 425.09 232.00 L 443.55 228.44 L 462.00 224.88 L 480.45 160.80 L 498.91 54.00 L 517.36 143.00 L 535.82 164.36 L 554.27 153.68 L 572.73 139.44 L 591.18 232.00 L 609.64 228.44 L 628.09 214.20 L 646.55 232.00 L 665.00 189.28 L 683.45 185.72 L 701.91 232.00 L 720.36 232.00 L 738.82 232.00 L 757.27 224.88 L 775.73 232.00 L 794.18 232.00 L 812.64 232.00 L 831.09 228.44 L 849.55 228.44 L 868.00 232.00 L 868 232 L 56 232 Z" class="area" />
      <path d="M 56.00 61.12 L 74.45 75.36 L 92.91 146.56 L 111.36 164.36 L 129.82 118.08 L 148.27 232.00 L 166.73 221.32 L 185.18 189.28 L 203.64 214.20 L 222.09 232.00 L 240.55 232.00 L 259.00 232.00 L 277.45 232.00 L 295.91 228.44 L 314.36 203.52 L 332.82 232.00 L 351.27 199.96 L 369.73 199.96 L 388.18 232.00 L 406.64 232.00 L 425.09 232.00 L 443.55 228.44 L 462.00 224.88 L 480.45 160.80 L 498.91 54.00 L 517.36 143.00 L 535.82 164.36 L 554.27 153.68 L 572.73 139.44 L 591.18 232.00 L 609.64 228.44 L 628.09 214.20 L 646.55 232.00 L 665.00 189.28 L 683.45 185.72 L 701.91 232.00 L 720.36 232.00 L 738.82 232.00 L 757.27 224.88 L 775.73 232.00 L 794.18 232.00 L 812.64 232.00 L 831.09 228.44 L 849.55 228.44 L 868.00 232.00" class="line" />
      <circle cx="56.00" cy="61.12" r="3.5"><title>2026-05-20: 48 commits</title></circle>
      <circle cx="74.45" cy="75.36" r="3.5"><title>2026-05-21: 44 commits</title></circle>
      <circle cx="92.91" cy="146.56" r="3.5"><title>2026-05-22: 24 commits</title></circle>
      <circle cx="111.36" cy="164.36" r="3.5"><title>2026-05-23: 19 commits</title></circle>
      <circle cx="129.82" cy="118.08" r="3.5"><title>2026-05-24: 32 commits</title></circle>
      <circle cx="148.27" cy="232.00" r="3.5"><title>2026-05-25: 0 commits</title></circle>
      <circle cx="166.73" cy="221.32" r="3.5"><title>2026-05-26: 3 commits</title></circle>
      <circle cx="185.18" cy="189.28" r="3.5"><title>2026-05-27: 12 commits</title></circle>
      <circle cx="203.64" cy="214.20" r="3.5"><title>2026-05-28: 5 commits</title></circle>
      <circle cx="222.09" cy="232.00" r="3.5"><title>2026-05-29: 0 commits</title></circle>
      <circle cx="240.55" cy="232.00" r="3.5"><title>2026-05-30: 0 commits</title></circle>
      <circle cx="259.00" cy="232.00" r="3.5"><title>2026-05-31: 0 commits</title></circle>
      <circle cx="277.45" cy="232.00" r="3.5"><title>2026-06-01: 0 commits</title></circle>
      <circle cx="295.91" cy="228.44" r="3.5"><title>2026-06-02: 1 commits</title></circle>
      <circle cx="314.36" cy="203.52" r="3.5"><title>2026-06-03: 8 commits</title></circle>
      <circle cx="332.82" cy="232.00" r="3.5"><title>2026-06-04: 0 commits</title></circle>
      <circle cx="351.27" cy="199.96" r="3.5"><title>2026-06-05: 9 commits</title></circle>
      <circle cx="369.73" cy="199.96" r="3.5"><title>2026-06-06: 9 commits</title></circle>
      <circle cx="388.18" cy="232.00" r="3.5"><title>2026-06-07: 0 commits</title></circle>
      <circle cx="406.64" cy="232.00" r="3.5"><title>2026-06-08: 0 commits</title></circle>
      <circle cx="425.09" cy="232.00" r="3.5"><title>2026-06-09: 0 commits</title></circle>
      <circle cx="443.55" cy="228.44" r="3.5"><title>2026-06-10: 1 commits</title></circle>
      <circle cx="462.00" cy="224.88" r="3.5"><title>2026-06-11: 2 commits</title></circle>
      <circle cx="480.45" cy="160.80" r="3.5"><title>2026-06-12: 20 commits</title></circle>
      <circle cx="498.91" cy="54.00" r="3.5"><title>2026-06-13: 50 commits</title></circle>
      <circle cx="517.36" cy="143.00" r="3.5"><title>2026-06-14: 25 commits</title></circle>
      <circle cx="535.82" cy="164.36" r="3.5"><title>2026-06-15: 19 commits</title></circle>
      <circle cx="554.27" cy="153.68" r="3.5"><title>2026-06-16: 22 commits</title></circle>
      <circle cx="572.73" cy="139.44" r="3.5"><title>2026-06-17: 26 commits</title></circle>
      <circle cx="591.18" cy="232.00" r="3.5"><title>2026-06-18: 0 commits</title></circle>
      <circle cx="609.64" cy="228.44" r="3.5"><title>2026-06-19: 1 commits</title></circle>
      <circle cx="628.09" cy="214.20" r="3.5"><title>2026-06-20: 5 commits</title></circle>
      <circle cx="646.55" cy="232.00" r="3.5"><title>2026-06-21: 0 commits</title></circle>
      <circle cx="665.00" cy="189.28" r="3.5"><title>2026-06-22: 12 commits</title></circle>
      <circle cx="683.45" cy="185.72" r="3.5"><title>2026-06-23: 13 commits</title></circle>
      <circle cx="701.91" cy="232.00" r="3.5"><title>2026-06-24: 0 commits</title></circle>
      <circle cx="720.36" cy="232.00" r="3.5"><title>2026-06-25: 0 commits</title></circle>
      <circle cx="738.82" cy="232.00" r="3.5"><title>2026-06-26: 0 commits</title></circle>
      <circle cx="757.27" cy="224.88" r="3.5"><title>2026-06-27: 2 commits</title></circle>
      <circle cx="775.73" cy="232.00" r="3.5"><title>2026-06-28: 0 commits</title></circle>
      <circle cx="794.18" cy="232.00" r="3.5"><title>2026-06-29: 0 commits</title></circle>
      <circle cx="812.64" cy="232.00" r="3.5"><title>2026-06-30: 0 commits</title></circle>
      <circle cx="831.09" cy="228.44" r="3.5"><title>2026-07-01: 1 commits</title></circle>
      <circle cx="849.55" cy="228.44" r="3.5"><title>2026-07-02: 1 commits</title></circle>
      <circle cx="868.00" cy="232.00" r="3.5"><title>2026-07-03: 0 commits</title></circle>
      <text x="56.00" y="276" text-anchor="start">2026-05-20</text>
      <text x="259.00" y="276" text-anchor="middle">2026-05-31</text>
      <text x="462.00" y="276" text-anchor="middle">2026-06-11</text>
      <text x="665.00" y="276" text-anchor="middle">2026-06-22</text>
      <text x="868.00" y="276" text-anchor="end">2026-07-03</text>
  </g>
</svg>
