<svg xmlns="http://www.w3.org/2000/svg" viewBox="0 0 140 120" role="img" aria-label="Skechers logo">
  <path d="M24 28h82c20 0 30 9 30 23 0 11-7 18-19 23 12 5 19 12 19 23 0 14-10 23-30 23H24c-14 0-24-10-24-24 0-9 4-17 12-24C4 65 0 57 0 48 0 34 10 24 24 24Z" fill="none" stroke="#b9bcc3" stroke-linejoin="round" stroke-width="10"/>
  <path fill="#16315f" d="M39 34h50c17 0 27 6 27 16 0 8-5 13-16 16 11 3 16 8 16 16 0 10-10 16-27 16H39c-9 0-15-6-15-15 0-6 3-10 8-14-5-4-8-8-8-14 0-9 6-15 15-15Zm5 16v8h42c7 0 11-2 11-4s-4-4-11-4H44Zm0 24v8h45c6 0 10-2 10-4 0-3-4-4-10-4H44Z"/>
</svg>
